# xmcd
#
# Track frame offsets:
#	150
#	16990
#	33516
#	54968
#	76971
#	93641
#	105051
#	130602
#	146540
#	160472
#	181477
#	194259
#
# Disc length: 2769 seconds
#
# Revision: 0
# Processed by: cddbd v1.5.2PL0 Copyright (c) Steve Scherf et al.
# Submitted via: EZCDAudioConverter 2.0.5.1
#
DISCID=910acf0c
DTITLE=Ken Swartz and the Palace of Sin - While I Was Waitin'
DYEAR=2014
DGENRE=Blues
TTITLE0=Hot Down There
TTITLE1=Lay Back Down
TTITLE2=Country Boy
TTITLE3=Baby We Got A Date
TTITLE4=River Jordan
TTITLE5=Alligator Blues
TTITLE6=Corrina
TTITLE7=That'll Never Happen No More
TTITLE8=Almost Blue
TTITLE9=Ode to John and Yoko
TTITLE10=Only Love Can Break Your Heart
TTITLE11=The Way You Look Tonight
EXTD=
EXTT0=
EXTT1=
EXTT2=
EXTT3=
EXTT4=
EXTT5=
EXTT6=
EXTT7=
EXTT8=
EXTT9=
EXTT10=
EXTT11=
PLAYORDER=
